PathFileType	4	(X/Y/Z)	./resultDataOpenSim/trcMotMarkerGrf/sub10/qtm-03-02.trc
DataRate	CameraRate	NumFrames	NumMarkers	Units	OrigDataRate	OrigDataStartFrame	OrigNumFrames
250.000000	250.000000	8	24	m	250.000000	121	481
Frame#	Time	L.Toe.Tip			R.Toe.Tip			L.Ankle.Lat			R.Ankle.Lat			L.Ankle.Med			R.Ankle.Med			L.Heel			R.Heel			L.Knee.Lat			R.Knee.Lat			L.Knee.Med			R.Knee.Med			L.Thigh.Upper			R.Thigh.Upper			L.ASIS			R.ASIS			V.Sacral			L.Acromium			R.Acromium			C7			L.Elbow			R.Elbow			L.Wrist.Lat			R.Wrist.Lat
		X1	Y1	Z1	X2	Y2	Z2	X3	Y3	Z3	X4	Y4	Z4	X5	Y5	Z5	X6	Y6	Z6	X7	Y7	Z7	X8	Y8	Z8	X9	Y9	Z9	X10	Y10	Z10	X11	Y11	Z11	X12	Y12	Z12	X13	Y13	Z13	X14	Y14	Z14	X15	Y15	Z15	X16	Y16	Z16	X17	Y17	Z17	X18	Y18	Z18	X19	Y19	Z19	X20	Y20	Z20	X21	Y21	Z21	X22	Y22	Z22	X23	Y23	Z23	X24	Y24	Z24

121	0.48	-0.49353224	0.063288882	-0.077850804	-0.77243159	0.040425377	0.079716292	-0.62428544	0.10092412	-0.078010857	-0.91411716	0.055509583	0.10891864	-0.59732849	0.12122534	0.001459119	-0.89333808	0.079976931	0.024573298	-0.67818247	0.074276465	-0.015135032	-0.96353811	0.03009748	0.059716593	-0.55425275	0.48336175	-0.11473925	-0.80988125	0.445433	0.14562715	-0.52711801	0.46435752	0.0044679448	-0.79771928	0.44677592	0.016601369	-0.7077888	0.82661784	-0.17790349	-0.78138216	0.86166464	0.19558489	-0.67011784	0.939444	-0.10815948	-0.69760389	0.9482395	0.13510466	-0.8810214	0.95504705	-0.017999767	-0.71530516	1.4127855	-0.14733509	-0.75498814	1.4092651	0.1750879	-0.81564954	1.4423974	0.0026832136	-0.84465878	1.0915804	-0.20297439	-0.81819368	1.0599519	0.23294395	-0.70397631	0.88597991	-0.20619638	-0.65178954	0.87848697	0.25738827
122	0.484	-0.47598643	0.063540214	-0.077404117	-0.7725518	0.04042488	0.079744943	-0.60767589	0.097889079	-0.076867252	-0.91407353	0.055581002	0.10882468	-0.58106738	0.11916966	0.0024095579	-0.89327092	0.079954409	0.024543459	-0.66094378	0.070511168	-0.013432081	-0.96354861	0.030162785	0.059625449	-0.54845054	0.48227612	-0.11453125	-0.80792005	0.44498757	0.14560586	-0.52084411	0.46369852	0.0044507471	-0.79561258	0.44635558	0.01657509	-0.70235079	0.82605512	-0.17795567	-0.77740916	0.86104	0.19556505	-0.66450234	0.93876101	-0.10790384	-0.69312396	0.94743225	0.13543894	-0.87567328	0.95444223	-0.018411307	-0.71029045	1.4120022	-0.14713531	-0.75004796	1.4086709	0.1753028	-0.81060795	1.4416275	0.0026679897	-0.84045803	1.0910741	-0.20315215	-0.81160138	1.0589262	0.23363443	-0.69989171	0.88531478	-0.20674844	-0.64289385	0.87937117	0.25735313
123	0.488	-0.45852755	0.063829216	-0.076910674	-0.77266074	0.040384815	0.079745258	-0.59101358	0.095049593	-0.075790637	-0.91406847	0.055643718	0.10873523	-0.56482698	0.117387	0.0033171306	-0.89321814	0.079930099	0.024469713	-0.6437556	0.067126372	-0.011729918	-0.96356225	0.030232172	0.059497443	-0.54266543	0.48107493	-0.11440485	-0.80583999	0.4445106	0.14556558	-0.51462873	0.46290052	0.0043785112	-0.79344051	0.44592892	0.016533279	-0.69686487	0.82552374	-0.17808396	-0.7734026	0.86037089	0.19552892	-0.65860278	0.93803832	-0.10760431	-0.68857425	0.94658911	0.13574029	-0.87053243	0.95381711	-0.019066869	-0.70524294	1.411155	-0.14695042	-0.74506287	1.40801	0.17549166	-0.80567183	1.4408089	0.0023199361	-0.83598806	1.0905226	-0.20308376	-0.80500077	1.0578492	0.23431301	-0.69576667	0.88458492	-0.20734966	-0.63399821	0.88022664	0.25727858
124	0.492	-0.4411332	0.064215203	-0.076333974	-0.77275269	0.040323796	0.079721046	-0.57430102	0.092441998	-0.074795852	-0.9140992	0.055696298	0.10864406	-0.54856688	0.11581932	0.0041598704	-0.89315146	0.079900669	0.024371385	-0.62647534	0.063960998	-0.010153894	-0.96357645	0.030305913	0.059322524	-0.53691126	0.47977569	-0.11434762	-0.80362911	0.44401246	0.1455059	-0.50843195	0.46197763	0.0042766469	-0.79117507	0.44548559	0.016475079	-0.69117955	0.82504938	-0.17825199	-0.76934558	0.85965881	0.19546448	-0.65243047	0.93726523	-0.10725625	-0.68393488	0.94570383	0.13599451	-0.8654664	0.95303644	-0.019935184	-0.70016874	1.410249	-0.14679831	-0.74001312	1.4072787	0.17563704	-0.80083592	1.4399419	0.0016399486	-0.8312656	1.0899118	-0.20278754	-0.79839076	1.0567224	0.23498025	-0.69160585	0.88378427	-0.20797894	-0.62512393	0.88105712	0.25716776
125	0.496	-0.42380819	0.064753683	-0.075649917	-0.77280399	0.040266503	0.079687215	-0.55758087	0.090069074	-0.073915858	-0.91413653	0.055743591	0.10854699	-0.53236068	0.11442092	0.004902416	-0.89305502	0.079867046	0.024260352	-0.60915374	0.06093977	-0.0088357687	-0.9635887	0.030382962	0.059120825	-0.53117493	0.47836943	-0.11435487	-0.80128339	0.44348798	0.14542547	-0.50224529	0.46094186	0.0041482392	-0.7887938	0.44501737	0.016395479	-0.68524246	0.82458612	-0.17842911	-0.76522425	0.85890626	0.1953543	-0.64622561	0.93642188	-0.10692217	-0.67921205	0.94478251	0.13620006	-0.86018502	0.9520685	-0.020830974	-0.69508039	1.4092845	-0.1466835	-0.73490699	1.4064679	0.17573741	-0.79593427	1.4390138	0.0010978984	-0.82642486	1.0892239	-0.20239549	-0.79177158	1.0555485	0.23563221	-0.68742586	0.88290758	-0.20861744	-0.6162894	0.88185414	0.25702461
126	0.5	-0.40658019	0.065497194	-0.074848615	-0.77280326	0.04022212	0.0796506	-0.54094785	0.087911306	-0.07318434	-0.91414199	0.055794842	0.10844252	-0.51629808	0.11320118	0.0055392491	-0.89292358	0.079829633	0.024134548	-0.59192522	0.058082516	-0.0078085405	-0.96359691	0.030463156	0.058929991	-0.52541267	0.47683702	-0.11443038	-0.79882951	0.44291566	0.14531724	-0.49607789	0.45980472	0.003993024	-0.78630151	0.44451846	0.016282859	-0.67905712	0.82404771	-0.17858125	-0.76102463	0.85811573	0.19517399	-0.64026694	0.93549359	-0.10668314	-0.67444598	0.94383143	0.13637026	-0.85454714	0.95106528	-0.021514645	-0.69000617	1.4082545	-0.14659548	-0.72976387	1.4055712	0.17579878	-0.79078853	1.4380086	0.0012218892	-0.821572	1.0884546	-0.2020096	-0.78514493	1.0543288	0.23626155	-0.68323924	0.88195685	-0.2092593	-0.60749247	0.88260574	0.25684905
127	0.504	-0.38949431	0.0664777	-0.073936412	-0.77276195	0.040177095	0.079605837	-0.52447085	0.085965293	-0.072603282	-0.91408334	0.055860886	0.10833089	-0.50040054	0.11219731	0.0060969823	-0.89275156	0.079786262	0.023979953	-0.57484669	0.055436895	-0.0070379613	-0.96359935	0.030549162	0.0587696	-0.51959097	0.47518413	-0.11456834	-0.79633077	0.44227687	0.14516237	-0.48994233	0.4585718	0.0038135059	-0.78371189	0.44398351	0.016136389	-0.6726815	0.82336444	-0.17869548	-0.7567175	0.85727695	0.19489441	-0.63455023	0.93448788	-0.1065485	-0.66970031	0.94283776	0.13651553	-0.84873469	0.95022412	-0.021660088	-0.68496148	1.4071542	-0.14652	-0.72459763	1.4045931	0.17583046	-0.78550229	1.4369297	0.0017470996	-0.81681249	1.0876215	-0.20172746	-0.77851362	1.0530654	0.23686339	-0.67905106	0.88093808	-0.20990434	-0.59871094	0.88330936	0.25663925
128	0.508	-0.37260816	0.067675932	-0.072934512	-0.77269949	0.040106266	0.079544457	-0.50815349	0.084241944	-0.072135353	-0.91395856	0.05594478	0.10821214	-0.48469914	0.11141342	0.0065760914	-0.89253508	0.079733235	0.023783707	-0.55793511	0.05304948	-0.0064848328	-0.96359537	0.030646604	0.058630923	-0.51370003	0.47344728	-0.11475618	-0.79384387	0.44156875	0.14494709	-0.48384674	0.45724647	0.0036117954	-0.78102146	0.44340592	0.015970286	-0.66625492	0.82251237	-0.17879135	-0.75226162	0.85636373	0.19448814	-0.62878815	0.93342862	-0.10643894	-0.66505147	0.94177529	0.13663483	-0.84313972	0.94963257	-0.02082831	-0.67988856	1.4059867	-0.14644298	-0.71941747	1.4035451	0.17584219	-0.78037558	1.4357969	0.0018196316	-0.81225575	1.0867473	-0.20164833	-0.77187662	1.0517582	0.23743795	-0.6748641	0.87985492	-0.21054946	-0.58993051	0.88397028	0.25639826
